<?xml version="1.0" encoding="UTF-8" standalone="no"?><svg xmlns="http://www.w3.org/2000/svg" xmlns:xlink="http://www.w3.org/1999/xlink" contentScriptType="application/ecmascript" contentStyleType="text/css" height="284px" preserveAspectRatio="none" style="width:433px;height:284px;" version="1.1" viewBox="0 0 433 284" width="433px" zoomAndPan="magnify"><defs/><g><rect fill="none" height="26.2969" style="stroke: none; stroke-width: 1.0;" width="199" x="90.5" y="15"/><text fill="#000000" font-family="sans-serif" font-size="14" font-weight="bold" lengthAdjust="spacingAndGlyphs" textLength="189" x="95.5" y="32.9951">DesignPatternMindMap</text><rect fill="#FEFECE" height="36.2969" rx="12.5" ry="12.5" style="stroke: #A80036; stroke-width: 1.5;" width="128" x="10" y="141.7422"/><text fill="#000000" font-family="sans-serif" font-size="14" lengthAdjust="spacingAndGlyphs" textLength="108" x="20" y="164.7373">Design Pattern</text><rect fill="#FEFECE" height="36.2969" rx="12.5" ry="12.5" style="stroke: #A80036; stroke-width: 1.5;" width="94" x="188" y="57.2969"/><text fill="#000000" font-family="sans-serif" font-size="14" lengthAdjust="spacingAndGlyphs" textLength="74" x="198" y="80.292">Creational</text><rect fill="#FEFECE" height="36.2969" rx="12.5" ry="12.5" style="stroke: #A80036; stroke-width: 1.5;" width="89" x="332" y="57.2969"/><text fill="#000000" font-family="sans-serif" font-size="14" lengthAdjust="spacingAndGlyphs" textLength="69" x="342" y="80.292">Singleton</text><path d="M282,75.4453 L292,75.4453 C307,75.4453 307,75.4453 322,75.4453 L332,75.4453 " fill="none" style="stroke: #A80036; stroke-width: 1.0;"/><path d="M138,159.8906 L148,159.8906 C163,159.8906 163,75.4453 178,75.4453 L188,75.4453 " fill="none" style="stroke: #A80036; stroke-width: 1.0;"/><rect fill="#FEFECE" height="36.2969" rx="12.5" ry="12.5" style="stroke: #A80036; stroke-width: 1.5;" width="91" x="188" y="113.5938"/><text fill="#000000" font-family="sans-serif" font-size="14" lengthAdjust="spacingAndGlyphs" textLength="71" x="198" y="136.5889">Structural</text><path d="M138,159.8906 L148,159.8906 C163,159.8906 163,131.7422 178,131.7422 L188,131.7422 " fill="none" style="stroke: #A80036; stroke-width: 1.0;"/><rect fill="#FEFECE" height="36.2969" rx="12.5" ry="12.5" style="stroke: #A80036; stroke-width: 1.5;" width="95" x="188" y="169.8906"/><text fill="#000000" font-family="sans-serif" font-size="14" lengthAdjust="spacingAndGlyphs" textLength="75" x="198" y="192.8857">Behavioral</text><rect fill="#FEFECE" height="36.2969" rx="12.5" ry="12.5" style="stroke: #A80036; stroke-width: 1.5;" width="87" x="333" y="169.8906"/><text fill="#000000" font-family="sans-serif" font-size="14" lengthAdjust="spacingAndGlyphs" textLength="63" x="343" y="192.8857">Strategy</text><path d="M283,188.0391 L293,188.0391 C308,188.0391 308,188.0391 323,188.0391 L333,188.0391 " fill="none" style="stroke: #A80036; stroke-width: 1.0;"/><path d="M138,159.8906 L148,159.8906 C163,159.8906 163,188.0391 178,188.0391 L188,188.0391 " fill="none" style="stroke: #A80036; stroke-width: 1.0;"/><rect fill="#FEFECE" height="36.2969" rx="12.5" ry="12.5" style="stroke: #A80036; stroke-width: 1.5;" width="110" x="188" y="226.1875"/><text fill="#000000" font-family="sans-serif" font-size="14" lengthAdjust="spacingAndGlyphs" textLength="90" x="198" y="249.1826">Concurrency</text><path d="M138,159.8906 L148,159.8906 C163,159.8906 163,244.3359 178,244.3359 L188,244.3359 " fill="none" style="stroke: #A80036; stroke-width: 1.0;"/><!--MD5=[4890d84487dcc562a553fe06ba86ea24]
@startmindmap
title DesignPatternMindMap
skinparam shadowing false 

* Design Pattern

** Creational
*** Singleton

** Structural

** Behavioral
*** Strategy 

** Concurrency
@endmindmap

PlantUML version 1.2020.20beta2(Unknown compile time)
(GPL source distribution)
Java Runtime: Java(TM) SE Runtime Environment
JVM: Java HotSpot(TM) 64-Bit Server VM
Default Encoding: UTF-8
Language: en
Country: US
--></g></svg>