<?xml version="1.0" encoding="UTF-8" standalone="no"?><svg xmlns="http://www.w3.org/2000/svg" xmlns:xlink="http://www.w3.org/1999/xlink" contentScriptType="application/ecmascript" contentStyleType="text/css" height="382px" preserveAspectRatio="none" style="width:388px;height:382px;" version="1.1" viewBox="0 0 388 382" width="388px" zoomAndPan="magnify"><defs><filter height="300%" id="f16j7ufgj231e1" width="300%" x="-1" y="-1"><feGaussianBlur result="blurOut" stdDeviation="2.0"/><feColorMatrix in="blurOut" result="blurOut2" type="matrix" values="0 0 0 0 0 0 0 0 0 0 0 0 0 0 0 0 0 0 .4 0"/><feOffset dx="4.0" dy="4.0" in="blurOut2" result="blurOut3"/><feBlend in="SourceGraphic" in2="blurOut3" mode="normal"/></filter></defs><g><text fill="#000000" font-family="sans-serif" font-size="18" lengthAdjust="spacingAndGlyphs" textLength="207" x="84.25" y="16.708">StrategyClassDiagram</text><!--MD5=[377953f0e8c8c0131a700fca43c84158]
class Strategy--><rect codeLine="3" fill="#FEFECE" filter="url(#f16j7ufgj231e1)" height="60.8047" id="Strategy" style="stroke: #A80036; stroke-width: 1.5;" width="114" x="121" y="186.9531"/><ellipse cx="149.95" cy="202.9531" fill="#ADD1B2" rx="11" ry="11" style="stroke: #A80036; stroke-width: 1.0;"/><path d="M152.2938,198.625 C151.3563,198.1875 150.7625,198.0469 149.8875,198.0469 C147.2625,198.0469 145.2625,200.125 145.2625,202.8438 L145.2625,203.9688 C145.2625,206.5469 147.3719,208.4375 150.2625,208.4375 C151.4813,208.4375 152.6375,208.1406 153.3875,207.5938 C153.9656,207.1875 154.2938,206.7344 154.2938,206.3438 C154.2938,205.8906 153.9031,205.5 153.4344,205.5 C153.2156,205.5 153.0125,205.5781 152.825,205.7656 C152.3719,206.25 152.3719,206.25 152.1844,206.3438 C151.7625,206.6094 151.075,206.7344 150.3094,206.7344 C148.2625,206.7344 146.9656,205.6406 146.9656,203.9375 L146.9656,202.8438 C146.9656,201.0625 148.2156,199.75 149.95,199.75 C150.5281,199.75 151.1375,199.9063 151.6063,200.1563 C152.0906,200.4375 152.2625,200.6563 152.3563,201.0625 C152.4188,201.4688 152.45,201.5938 152.5906,201.7188 C152.7313,201.8594 152.9656,201.9688 153.1844,201.9688 C153.45,201.9688 153.7156,201.8281 153.8875,201.6094 C153.9969,201.4531 154.0281,201.2656 154.0281,200.8438 L154.0281,199.4219 C154.0281,198.9844 154.0125,198.8594 153.9188,198.7031 C153.7625,198.4375 153.4813,198.2969 153.1844,198.2969 C152.8875,198.2969 152.6844,198.3906 152.4656,198.7031 L152.2938,198.625 Z "/><text fill="#000000" font-family="sans-serif" font-size="12" lengthAdjust="spacingAndGlyphs" textLength="51" x="167.05" y="207.1074">Strategy</text><line style="stroke: #A80036; stroke-width: 1.5;" x1="122" x2="234" y1="218.9531" y2="218.9531"/><line style="stroke: #A80036; stroke-width: 1.5;" x1="122" x2="234" y1="226.9531" y2="226.9531"/><ellipse cx="132" cy="237.9531" fill="#84BE84" rx="3" ry="3" style="stroke: #038048; stroke-width: 1.0;"/><text fill="#000000" font-family="sans-serif" font-size="11" lengthAdjust="spacingAndGlyphs" textLength="88" x="141" y="241.1636">operator()() = 0</text><!--MD5=[d678f02e2d5bd6dca56adad3113a969b]
class Strategy1--><rect codeLine="7" fill="#FEFECE" filter="url(#f16j7ufgj231e1)" height="60.8047" id="Strategy1" style="stroke: #A80036; stroke-width: 1.5;" width="90" x="7" y="307.9531"/><ellipse cx="22" cy="323.9531" fill="#ADD1B2" rx="11" ry="11" style="stroke: #A80036; stroke-width: 1.0;"/><path d="M24.3438,319.625 C23.4063,319.1875 22.8125,319.0469 21.9375,319.0469 C19.3125,319.0469 17.3125,321.125 17.3125,323.8438 L17.3125,324.9688 C17.3125,327.5469 19.4219,329.4375 22.3125,329.4375 C23.5313,329.4375 24.6875,329.1406 25.4375,328.5938 C26.0156,328.1875 26.3438,327.7344 26.3438,327.3438 C26.3438,326.8906 25.9531,326.5 25.4844,326.5 C25.2656,326.5 25.0625,326.5781 24.875,326.7656 C24.4219,327.25 24.4219,327.25 24.2344,327.3438 C23.8125,327.6094 23.125,327.7344 22.3594,327.7344 C20.3125,327.7344 19.0156,326.6406 19.0156,324.9375 L19.0156,323.8438 C19.0156,322.0625 20.2656,320.75 22,320.75 C22.5781,320.75 23.1875,320.9063 23.6563,321.1563 C24.1406,321.4375 24.3125,321.6563 24.4063,322.0625 C24.4688,322.4688 24.5,322.5938 24.6406,322.7188 C24.7813,322.8594 25.0156,322.9688 25.2344,322.9688 C25.5,322.9688 25.7656,322.8281 25.9375,322.6094 C26.0469,322.4531 26.0781,322.2656 26.0781,321.8438 L26.0781,320.4219 C26.0781,319.9844 26.0625,319.8594 25.9688,319.7031 C25.8125,319.4375 25.5313,319.2969 25.2344,319.2969 C24.9375,319.2969 24.7344,319.3906 24.5156,319.7031 L24.3438,319.625 Z "/><text fill="#000000" font-family="sans-serif" font-size="12" lengthAdjust="spacingAndGlyphs" textLength="58" x="36" y="328.1074">Strategy1</text><line style="stroke: #A80036; stroke-width: 1.5;" x1="8" x2="96" y1="339.9531" y2="339.9531"/><line style="stroke: #A80036; stroke-width: 1.5;" x1="8" x2="96" y1="347.9531" y2="347.9531"/><ellipse cx="18" cy="358.9531" fill="#84BE84" rx="3" ry="3" style="stroke: #038048; stroke-width: 1.0;"/><text fill="#000000" font-family="sans-serif" font-size="11" lengthAdjust="spacingAndGlyphs" textLength="64" x="27" y="362.1636">operator()()</text><!--MD5=[bc790b966eae73bda6a7bf384de79ba2]
class Strategy2--><rect codeLine="11" fill="#FEFECE" filter="url(#f16j7ufgj231e1)" height="60.8047" id="Strategy2" style="stroke: #A80036; stroke-width: 1.5;" width="91" x="132.5" y="307.9531"/><ellipse cx="147.5" cy="323.9531" fill="#ADD1B2" rx="11" ry="11" style="stroke: #A80036; stroke-width: 1.0;"/><path d="M149.8438,319.625 C148.9063,319.1875 148.3125,319.0469 147.4375,319.0469 C144.8125,319.0469 142.8125,321.125 142.8125,323.8438 L142.8125,324.9688 C142.8125,327.5469 144.9219,329.4375 147.8125,329.4375 C149.0313,329.4375 150.1875,329.1406 150.9375,328.5938 C151.5156,328.1875 151.8438,327.7344 151.8438,327.3438 C151.8438,326.8906 151.4531,326.5 150.9844,326.5 C150.7656,326.5 150.5625,326.5781 150.375,326.7656 C149.9219,327.25 149.9219,327.25 149.7344,327.3438 C149.3125,327.6094 148.625,327.7344 147.8594,327.7344 C145.8125,327.7344 144.5156,326.6406 144.5156,324.9375 L144.5156,323.8438 C144.5156,322.0625 145.7656,320.75 147.5,320.75 C148.0781,320.75 148.6875,320.9063 149.1563,321.1563 C149.6406,321.4375 149.8125,321.6563 149.9063,322.0625 C149.9688,322.4688 150,322.5938 150.1406,322.7188 C150.2813,322.8594 150.5156,322.9688 150.7344,322.9688 C151,322.9688 151.2656,322.8281 151.4375,322.6094 C151.5469,322.4531 151.5781,322.2656 151.5781,321.8438 L151.5781,320.4219 C151.5781,319.9844 151.5625,319.8594 151.4688,319.7031 C151.3125,319.4375 151.0313,319.2969 150.7344,319.2969 C150.4375,319.2969 150.2344,319.3906 150.0156,319.7031 L149.8438,319.625 Z "/><text fill="#000000" font-family="sans-serif" font-size="12" lengthAdjust="spacingAndGlyphs" textLength="59" x="161.5" y="328.1074">Strategy2</text><line style="stroke: #A80036; stroke-width: 1.5;" x1="133.5" x2="222.5" y1="339.9531" y2="339.9531"/><line style="stroke: #A80036; stroke-width: 1.5;" x1="133.5" x2="222.5" y1="347.9531" y2="347.9531"/><ellipse cx="143.5" cy="358.9531" fill="#84BE84" rx="3" ry="3" style="stroke: #038048; stroke-width: 1.0;"/><text fill="#000000" font-family="sans-serif" font-size="11" lengthAdjust="spacingAndGlyphs" textLength="64" x="152.5" y="362.1636">operator()()</text><!--MD5=[fdd8d43c6e394738cd0fefc01d9f6d08]
class Strategy3--><rect codeLine="15" fill="#FEFECE" filter="url(#f16j7ufgj231e1)" height="60.8047" id="Strategy3" style="stroke: #A80036; stroke-width: 1.5;" width="91" x="258.5" y="307.9531"/><ellipse cx="273.5" cy="323.9531" fill="#ADD1B2" rx="11" ry="11" style="stroke: #A80036; stroke-width: 1.0;"/><path d="M275.8438,319.625 C274.9063,319.1875 274.3125,319.0469 273.4375,319.0469 C270.8125,319.0469 268.8125,321.125 268.8125,323.8438 L268.8125,324.9688 C268.8125,327.5469 270.9219,329.4375 273.8125,329.4375 C275.0313,329.4375 276.1875,329.1406 276.9375,328.5938 C277.5156,328.1875 277.8438,327.7344 277.8438,327.3438 C277.8438,326.8906 277.4531,326.5 276.9844,326.5 C276.7656,326.5 276.5625,326.5781 276.375,326.7656 C275.9219,327.25 275.9219,327.25 275.7344,327.3438 C275.3125,327.6094 274.625,327.7344 273.8594,327.7344 C271.8125,327.7344 270.5156,326.6406 270.5156,324.9375 L270.5156,323.8438 C270.5156,322.0625 271.7656,320.75 273.5,320.75 C274.0781,320.75 274.6875,320.9063 275.1563,321.1563 C275.6406,321.4375 275.8125,321.6563 275.9063,322.0625 C275.9688,322.4688 276,322.5938 276.1406,322.7188 C276.2813,322.8594 276.5156,322.9688 276.7344,322.9688 C277,322.9688 277.2656,322.8281 277.4375,322.6094 C277.5469,322.4531 277.5781,322.2656 277.5781,321.8438 L277.5781,320.4219 C277.5781,319.9844 277.5625,319.8594 277.4688,319.7031 C277.3125,319.4375 277.0313,319.2969 276.7344,319.2969 C276.4375,319.2969 276.2344,319.3906 276.0156,319.7031 L275.8438,319.625 Z "/><text fill="#000000" font-family="sans-serif" font-size="12" lengthAdjust="spacingAndGlyphs" textLength="59" x="287.5" y="328.1074">Strategy3</text><line style="stroke: #A80036; stroke-width: 1.5;" x1="259.5" x2="348.5" y1="339.9531" y2="339.9531"/><line style="stroke: #A80036; stroke-width: 1.5;" x1="259.5" x2="348.5" y1="347.9531" y2="347.9531"/><ellipse cx="269.5" cy="358.9531" fill="#84BE84" rx="3" ry="3" style="stroke: #038048; stroke-width: 1.0;"/><text fill="#000000" font-family="sans-serif" font-size="11" lengthAdjust="spacingAndGlyphs" textLength="64" x="278.5" y="362.1636">operator()()</text><!--MD5=[6754354365917abf8f1a56af1b7e344c]
class Context--><rect codeLine="19" fill="#FEFECE" filter="url(#f16j7ufgj231e1)" height="99.2188" id="Context" style="stroke: #A80036; stroke-width: 1.5;" width="271" x="103.5" y="27.9531"/><ellipse cx="211.75" cy="43.9531" fill="#ADD1B2" rx="11" ry="11" style="stroke: #A80036; stroke-width: 1.0;"/><path d="M214.0938,39.625 C213.1563,39.1875 212.5625,39.0469 211.6875,39.0469 C209.0625,39.0469 207.0625,41.125 207.0625,43.8438 L207.0625,44.9688 C207.0625,47.5469 209.1719,49.4375 212.0625,49.4375 C213.2813,49.4375 214.4375,49.1406 215.1875,48.5938 C215.7656,48.1875 216.0938,47.7344 216.0938,47.3438 C216.0938,46.8906 215.7031,46.5 215.2344,46.5 C215.0156,46.5 214.8125,46.5781 214.625,46.7656 C214.1719,47.25 214.1719,47.25 213.9844,47.3438 C213.5625,47.6094 212.875,47.7344 212.1094,47.7344 C210.0625,47.7344 208.7656,46.6406 208.7656,44.9375 L208.7656,43.8438 C208.7656,42.0625 210.0156,40.75 211.75,40.75 C212.3281,40.75 212.9375,40.9063 213.4063,41.1563 C213.8906,41.4375 214.0625,41.6563 214.1563,42.0625 C214.2188,42.4688 214.25,42.5938 214.3906,42.7188 C214.5313,42.8594 214.7656,42.9688 214.9844,42.9688 C215.25,42.9688 215.5156,42.8281 215.6875,42.6094 C215.7969,42.4531 215.8281,42.2656 215.8281,41.8438 L215.8281,40.4219 C215.8281,39.9844 215.8125,39.8594 215.7188,39.7031 C215.5625,39.4375 215.2813,39.2969 214.9844,39.2969 C214.6875,39.2969 214.4844,39.3906 214.2656,39.7031 L214.0938,39.625 Z "/><text fill="#000000" font-family="sans-serif" font-size="12" lengthAdjust="spacingAndGlyphs" textLength="46" x="232.25" y="48.1074">Context</text><line style="stroke: #A80036; stroke-width: 1.5;" x1="104.5" x2="373.5" y1="59.9531" y2="59.9531"/><rect fill="none" height="6" style="stroke: #C82930; stroke-width: 1.0;" width="6" x="111.5" y="67.9531"/><text fill="#000000" font-family="sans-serif" font-size="11" lengthAdjust="spacingAndGlyphs" textLength="185" x="123.5" y="74.1636">std::unique_ptr&lt;Strategy&gt; strat_</text><line style="stroke: #A80036; stroke-width: 1.5;" x1="104.5" x2="373.5" y1="80.7578" y2="80.7578"/><ellipse cx="114.5" cy="91.7578" fill="#84BE84" rx="3" ry="3" style="stroke: #038048; stroke-width: 1.0;"/><text fill="#000000" font-family="sans-serif" font-size="11" lengthAdjust="spacingAndGlyphs" textLength="53" x="123.5" y="94.9683">Context()</text><ellipse cx="114.5" cy="104.5625" fill="#84BE84" rx="3" ry="3" style="stroke: #038048; stroke-width: 1.0;"/><text fill="#000000" font-family="sans-serif" font-size="11" lengthAdjust="spacingAndGlyphs" textLength="245" x="123.5" y="107.7729">setStrategy(std::unique_ptr&lt;Strategy strat)</text><ellipse cx="114.5" cy="117.3672" fill="#84BE84" rx="3" ry="3" style="stroke: #038048; stroke-width: 1.0;"/><text fill="#000000" font-family="sans-serif" font-size="11" lengthAdjust="spacingAndGlyphs" textLength="55" x="123.5" y="120.5776">strategy()</text><!--MD5=[f5b5b8260d977bf7b6f4eaae1e6b675d]
class TEST--><rect fill="#FEFECE" filter="url(#f16j7ufgj231e1)" height="48" id="TEST" style="stroke: #A80036; stroke-width: 1.5;" width="61" x="270.5" y="193.4531"/><ellipse cx="285.5" cy="209.4531" fill="#ADD1B2" rx="11" ry="11" style="stroke: #A80036; stroke-width: 1.0;"/><path d="M287.8438,205.125 C286.9063,204.6875 286.3125,204.5469 285.4375,204.5469 C282.8125,204.5469 280.8125,206.625 280.8125,209.3438 L280.8125,210.4688 C280.8125,213.0469 282.9219,214.9375 285.8125,214.9375 C287.0313,214.9375 288.1875,214.6406 288.9375,214.0938 C289.5156,213.6875 289.8438,213.2344 289.8438,212.8438 C289.8438,212.3906 289.4531,212 288.9844,212 C288.7656,212 288.5625,212.0781 288.375,212.2656 C287.9219,212.75 287.9219,212.75 287.7344,212.8438 C287.3125,213.1094 286.625,213.2344 285.8594,213.2344 C283.8125,213.2344 282.5156,212.1406 282.5156,210.4375 L282.5156,209.3438 C282.5156,207.5625 283.7656,206.25 285.5,206.25 C286.0781,206.25 286.6875,206.4063 287.1563,206.6563 C287.6406,206.9375 287.8125,207.1563 287.9063,207.5625 C287.9688,207.9688 288,208.0938 288.1406,208.2188 C288.2813,208.3594 288.5156,208.4688 288.7344,208.4688 C289,208.4688 289.2656,208.3281 289.4375,208.1094 C289.5469,207.9531 289.5781,207.7656 289.5781,207.3438 L289.5781,205.9219 C289.5781,205.4844 289.5625,205.3594 289.4688,205.2031 C289.3125,204.9375 289.0313,204.7969 288.7344,204.7969 C288.4375,204.7969 288.2344,204.8906 288.0156,205.2031 L287.8438,205.125 Z "/><text fill="#000000" font-family="sans-serif" font-size="12" lengthAdjust="spacingAndGlyphs" textLength="29" x="299.5" y="213.6074">TEST</text><line style="stroke: #A80036; stroke-width: 1.5;" x1="271.5" x2="330.5" y1="225.4531" y2="225.4531"/><line style="stroke: #A80036; stroke-width: 1.5;" x1="271.5" x2="330.5" y1="233.4531" y2="233.4531"/><!--MD5=[0a7be358f08202a33cfcf8e27bbb9c25]
link Context to Strategy--><path codeLine="26" d="M212.6425,138.0827 C212.6425,138.0827 201.368,163.5881 196.459,174.6941 " fill="none" id="Context-Strategy" style="stroke: #A80036; stroke-width: 1.0;"/><polygon fill="#A80036" points="191.161,186.6791,198.4581,180.0646,193.1825,182.106,191.1411,176.8303,191.161,186.6791" style="stroke: #A80036; stroke-width: 1.0;"/><line style="stroke: #A80036; stroke-width: 1.0;" x1="193.1825" x2="196.4165" y1="182.106" y2="174.7886"/><polygon fill="#FFFFFF" points="217.494,127.1071,211.4097,130.9777,212.6425,138.0827,218.7268,134.2121,217.494,127.1071" style="stroke: #A80036; stroke-width: 1.0;"/><!--MD5=[d7ae2fb1d2e7383bf211b48d4c302458]
reverse link Strategy to Strategy1--><path codeLine="27" d="M131.768,262.1161 C115.714,277.2787 98.0933,293.9205 83.5056,307.6978 " fill="none" id="Strategy-backto-Strategy1" style="stroke: #A80036; stroke-width: 1.0;"/><polygon fill="none" points="127.183,256.8181,146.53,248.1751,136.796,266.9961,127.183,256.8181" style="stroke: #A80036; stroke-width: 1.0;"/><!--MD5=[d1c818ce3a6ca07844ad774c0917e5d5]
reverse link Strategy to Strategy2--><path codeLine="28" d="M178,268.2821 C178,281.6879 178,295.767 178,307.6978 " fill="none" id="Strategy-backto-Strategy2" style="stroke: #A80036; stroke-width: 1.0;"/><polygon fill="none" points="171,268.1751,178,248.1751,185,268.1751,171,268.1751" style="stroke: #A80036; stroke-width: 1.0;"/><!--MD5=[c32afacb4d4d4b3ce9eba303420f3e65]
reverse link Strategy to Strategy3--><path codeLine="29" d="M224.232,262.1161 C240.286,277.2787 257.907,293.9205 272.494,307.6978 " fill="none" id="Strategy-backto-Strategy3" style="stroke: #A80036; stroke-width: 1.0;"/><polygon fill="none" points="219.204,266.9961,209.47,248.1751,228.817,256.8181,219.204,266.9961" style="stroke: #A80036; stroke-width: 1.0;"/><!--MD5=[e73b441f2b5c3548adae0b8d762cb2a2]
link Context to TEST--><path codeLine="30" d="M260.859,127.1071 C270.969,149.6111 282.504,175.2851 290.607,193.3201 " fill="none" id="Context-TEST" style="stroke: #A80036; stroke-width: 1.0;"/><!--MD5=[f32101c1693eaaf7d8dc81561686b70a]
@startuml
title StrategyClassDiagram

class Strategy {
  + operator()() = 0
}

class Strategy1 {
  + operator()()
}

class Strategy2 {
  + operator()()
}

class Strategy3 {
  + operator()()
}

class Context {
  - std::unique_ptr<Strategy> strat_
  + Context()
  + setStrategy(std::unique_ptr<Strategy strat)
  + strategy()
}

Context o- -> Strategy
Strategy <|- - Strategy1
Strategy <|- - Strategy2
Strategy <|- - Strategy3
Context - - TEST
@enduml

PlantUML version 1.2020.20beta1(Unknown compile time)
(GPL source distribution)
Java Runtime: Java(TM) SE Runtime Environment
JVM: Java HotSpot(TM) 64-Bit Server VM
Default Encoding: UTF-8
Language: en
Country: US
--></g></svg>