<?xml version="1.0" encoding="UTF-8" standalone="no"?><svg xmlns="http://www.w3.org/2000/svg" xmlns:xlink="http://www.w3.org/1999/xlink" contentScriptType="application/ecmascript" contentStyleType="text/css" height="291px" preserveAspectRatio="none" style="width:407px;height:291px;" version="1.1" viewBox="0 0 407 291" width="407px" zoomAndPan="magnify"><defs><filter height="300%" id="f1xbpoy9bmh6gh" width="300%" x="-1" y="-1"><feGaussianBlur result="blurOut" stdDeviation="2.0"/><feColorMatrix in="blurOut" result="blurOut2" type="matrix" values="0 0 0 0 0 0 0 0 0 0 0 0 0 0 0 0 0 0 .4 0"/><feOffset dx="4.0" dy="4.0" in="blurOut2" result="blurOut3"/><feBlend in="SourceGraphic" in2="blurOut3" mode="normal"/></filter></defs><g><rect fill="none" height="27.6094" style="stroke: none; stroke-width: 1.0;" width="174" x="86.5" y="15"/><text fill="#000000" font-family="sans-serif" font-size="14" font-weight="bold" lengthAdjust="spacingAndGlyphs" textLength="164" x="91.5" y="34.5332">DesignPatternMindmap</text><rect fill="#FEFECE" filter="url(#f1xbpoy9bmh6gh)" height="37.6094" rx="12.5" ry="12.5" style="stroke: #A80036; stroke-width: 1.5;" width="114" x="10" y="145.0234"/><text fill="#000000" font-family="sans-serif" font-size="14" lengthAdjust="spacingAndGlyphs" textLength="94" x="20" y="169.5566">Design Pattern</text><rect fill="#FEFECE" filter="url(#f1xbpoy9bmh6gh)" height="37.6094" rx="12.5" ry="12.5" style="stroke: #A80036; stroke-width: 1.5;" width="85" x="174" y="58.6094"/><text fill="#000000" font-family="sans-serif" font-size="14" lengthAdjust="spacingAndGlyphs" textLength="65" x="184" y="83.1426">Creational</text><rect fill="#FEFECE" filter="url(#f1xbpoy9bmh6gh)" height="37.6094" rx="12.5" ry="12.5" style="stroke: #A80036; stroke-width: 1.5;" width="79" x="309" y="58.6094"/><text fill="#000000" font-family="sans-serif" font-size="14" lengthAdjust="spacingAndGlyphs" textLength="59" x="319" y="83.1426">Singleton</text><path d="M259,77.4141 L269,77.4141 C284,77.4141 284,77.4141 299,77.4141 L309,77.4141 " fill="none" style="stroke: #A80036; stroke-width: 1.0;"/><path d="M124,163.8281 L134,163.8281 C149,163.8281 149,77.4141 164,77.4141 L174,77.4141 " fill="none" style="stroke: #A80036; stroke-width: 1.0;"/><rect fill="#FEFECE" filter="url(#f1xbpoy9bmh6gh)" height="37.6094" rx="12.5" ry="12.5" style="stroke: #A80036; stroke-width: 1.5;" width="81" x="174" y="116.2188"/><text fill="#000000" font-family="sans-serif" font-size="14" lengthAdjust="spacingAndGlyphs" textLength="61" x="184" y="140.752">Structural</text><path d="M124,163.8281 L134,163.8281 C149,163.8281 149,135.0234 164,135.0234 L174,135.0234 " fill="none" style="stroke: #A80036; stroke-width: 1.0;"/><rect fill="#FEFECE" filter="url(#f1xbpoy9bmh6gh)" height="37.6094" rx="12.5" ry="12.5" style="stroke: #A80036; stroke-width: 1.5;" width="87" x="174" y="173.8281"/><text fill="#000000" font-family="sans-serif" font-size="14" lengthAdjust="spacingAndGlyphs" textLength="67" x="184" y="198.3613">Behavioral</text><rect fill="#FEFECE" filter="url(#f1xbpoy9bmh6gh)" height="37.6094" rx="12.5" ry="12.5" style="stroke: #A80036; stroke-width: 1.5;" width="77" x="311" y="173.8281"/><text fill="#000000" font-family="sans-serif" font-size="14" lengthAdjust="spacingAndGlyphs" textLength="53" x="321" y="198.3613">Strategy</text><path d="M261,192.6328 L271,192.6328 C286,192.6328 286,192.6328 301,192.6328 L311,192.6328 " fill="none" style="stroke: #A80036; stroke-width: 1.0;"/><path d="M124,163.8281 L134,163.8281 C149,163.8281 149,192.6328 164,192.6328 L174,192.6328 " fill="none" style="stroke: #A80036; stroke-width: 1.0;"/><rect fill="#FEFECE" filter="url(#f1xbpoy9bmh6gh)" height="37.6094" rx="12.5" ry="12.5" style="stroke: #A80036; stroke-width: 1.5;" width="101" x="174" y="231.4375"/><text fill="#000000" font-family="sans-serif" font-size="14" lengthAdjust="spacingAndGlyphs" textLength="81" x="184" y="255.9707">Concurrency</text><path d="M124,163.8281 L134,163.8281 C149,163.8281 149,250.2422 164,250.2422 L174,250.2422 " fill="none" style="stroke: #A80036; stroke-width: 1.0;"/><!--MD5=[17657a759a911a9916c67574f13b87c2]
@startmindmap
title DesignPatternMindmap

* Design Pattern

** Creational
*** Singleton

** Structural

** Behavioral
*** Strategy 

** Concurrency

@endmindmap

PlantUML version 1.2020.18(Wed Sep 30 21:40:44 CEST 2020)
(GPL source distribution)
Java Runtime: Java(TM) SE Runtime Environment
JVM: Java HotSpot(TM) 64-Bit Server VM
Default Encoding: Cp1252
Language: de
Country: DE
--></g></svg>