<?xml version="1.0" encoding="UTF-8" standalone="no"?><svg xmlns="http://www.w3.org/2000/svg" xmlns:xlink="http://www.w3.org/1999/xlink" contentScriptType="application/ecmascript" contentStyleType="text/css" height="307px" preserveAspectRatio="none" style="width:340px;height:307px;" version="1.1" viewBox="0 0 340 307" width="340px" zoomAndPan="magnify"><defs><filter height="300%" id="fdq05keazhvz3" width="300%" x="-1" y="-1"><feGaussianBlur result="blurOut" stdDeviation="2.0"/><feColorMatrix in="blurOut" result="blurOut2" type="matrix" values="0 0 0 0 0 0 0 0 0 0 0 0 0 0 0 0 0 0 .4 0"/><feOffset dx="4.0" dy="4.0" in="blurOut2" result="blurOut3"/><feBlend in="SourceGraphic" in2="blurOut3" mode="normal"/></filter></defs><g><text fill="#000000" font-family="sans-serif" font-size="18" lengthAdjust="spacingAndGlyphs" textLength="189" x="69" y="18.6855">Strategy Class Diagram</text><!--MD5=[377953f0e8c8c0131a700fca43c84158]
class Strategy--><rect codeLine="3" fill="#FEFECE" filter="url(#fdq05keazhvz3)" height="48" id="Strategy" style="stroke: #A80036; stroke-width: 1.5;" width="76" x="128.5" y="137.6406"/><ellipse cx="143.5" cy="153.6406" fill="#ADD1B2" rx="11" ry="11" style="stroke: #A80036; stroke-width: 1.0;"/><path d="M146.2656,149.5156 Q146.4219,149.2969 146.6094,149.1875 Q146.7969,149.0781 147.0156,149.0781 Q147.3906,149.0781 147.625,149.3359 Q147.8594,149.5938 147.8594,150.2031 L147.8594,151.6563 Q147.8594,152.2656 147.625,152.5313 Q147.3906,152.7969 147.0156,152.7969 Q146.6719,152.7969 146.4688,152.5938 Q146.2656,152.4063 146.1563,151.8906 Q146.1094,151.5313 145.9219,151.3438 Q145.5938,150.9688 144.9844,150.75 Q144.375,150.5313 143.75,150.5313 Q142.9844,150.5313 142.3516,150.8594 Q141.7188,151.1875 141.2266,151.9375 Q140.7344,152.6875 140.7344,153.7188 L140.7344,154.8125 Q140.7344,156.0469 141.625,156.8672 Q142.5156,157.6875 144.1094,157.6875 Q145.0469,157.6875 145.7031,157.4375 Q146.0938,157.2813 146.5156,156.8438 Q146.7813,156.5781 146.9297,156.5 Q147.0781,156.4219 147.2813,156.4219 Q147.6094,156.4219 147.8672,156.6797 Q148.125,156.9375 148.125,157.2813 Q148.125,157.625 147.7813,158.0313 Q147.2813,158.6094 146.4844,158.9375 Q145.4063,159.3906 144.1094,159.3906 Q142.5938,159.3906 141.3906,158.7656 Q140.4063,158.2656 139.7188,157.1953 Q139.0313,156.125 139.0313,154.8438 L139.0313,153.6875 Q139.0313,152.3594 139.6484,151.2109 Q140.2656,150.0625 141.3594,149.4453 Q142.4531,148.8281 143.6875,148.8281 Q144.4219,148.8281 145.0703,148.9922 Q145.7188,149.1563 146.2656,149.5156 Z "/><text fill="#000000" font-family="sans-serif" font-size="12" lengthAdjust="spacingAndGlyphs" textLength="44" x="157.5" y="158.5508">Strategy</text><line style="stroke: #A80036; stroke-width: 1.5;" x1="129.5" x2="203.5" y1="169.6406" y2="169.6406"/><line style="stroke: #A80036; stroke-width: 1.5;" x1="129.5" x2="203.5" y1="177.6406" y2="177.6406"/><!--MD5=[d678f02e2d5bd6dca56adad3113a969b]
class Strategy1--><rect codeLine="4" fill="#FEFECE" filter="url(#fdq05keazhvz3)" height="48" id="Strategy1" style="stroke: #A80036; stroke-width: 1.5;" width="83" x="7" y="245.6406"/><ellipse cx="22" cy="261.6406" fill="#ADD1B2" rx="11" ry="11" style="stroke: #A80036; stroke-width: 1.0;"/><path d="M24.7656,257.5156 Q24.9219,257.2969 25.1094,257.1875 Q25.2969,257.0781 25.5156,257.0781 Q25.8906,257.0781 26.125,257.3359 Q26.3594,257.5938 26.3594,258.2031 L26.3594,259.6563 Q26.3594,260.2656 26.125,260.5313 Q25.8906,260.7969 25.5156,260.7969 Q25.1719,260.7969 24.9688,260.5938 Q24.7656,260.4063 24.6563,259.8906 Q24.6094,259.5313 24.4219,259.3438 Q24.0938,258.9688 23.4844,258.75 Q22.875,258.5313 22.25,258.5313 Q21.4844,258.5313 20.8516,258.8594 Q20.2188,259.1875 19.7266,259.9375 Q19.2344,260.6875 19.2344,261.7188 L19.2344,262.8125 Q19.2344,264.0469 20.125,264.8672 Q21.0156,265.6875 22.6094,265.6875 Q23.5469,265.6875 24.2031,265.4375 Q24.5938,265.2813 25.0156,264.8438 Q25.2813,264.5781 25.4297,264.5 Q25.5781,264.4219 25.7813,264.4219 Q26.1094,264.4219 26.3672,264.6797 Q26.625,264.9375 26.625,265.2813 Q26.625,265.625 26.2813,266.0313 Q25.7813,266.6094 24.9844,266.9375 Q23.9063,267.3906 22.6094,267.3906 Q21.0938,267.3906 19.8906,266.7656 Q18.9063,266.2656 18.2188,265.1953 Q17.5313,264.125 17.5313,262.8438 L17.5313,261.6875 Q17.5313,260.3594 18.1484,259.2109 Q18.7656,258.0625 19.8594,257.4453 Q20.9531,256.8281 22.1875,256.8281 Q22.9219,256.8281 23.5703,256.9922 Q24.2188,257.1563 24.7656,257.5156 Z "/><text fill="#000000" font-family="sans-serif" font-size="12" lengthAdjust="spacingAndGlyphs" textLength="51" x="36" y="266.5508">Strategy1</text><line style="stroke: #A80036; stroke-width: 1.5;" x1="8" x2="89" y1="277.6406" y2="277.6406"/><line style="stroke: #A80036; stroke-width: 1.5;" x1="8" x2="89" y1="285.6406" y2="285.6406"/><!--MD5=[bc790b966eae73bda6a7bf384de79ba2]
class Strategy2--><rect codeLine="5" fill="#FEFECE" filter="url(#fdq05keazhvz3)" height="48" id="Strategy2" style="stroke: #A80036; stroke-width: 1.5;" width="83" x="125" y="245.6406"/><ellipse cx="140" cy="261.6406" fill="#ADD1B2" rx="11" ry="11" style="stroke: #A80036; stroke-width: 1.0;"/><path d="M142.7656,257.5156 Q142.9219,257.2969 143.1094,257.1875 Q143.2969,257.0781 143.5156,257.0781 Q143.8906,257.0781 144.125,257.3359 Q144.3594,257.5938 144.3594,258.2031 L144.3594,259.6563 Q144.3594,260.2656 144.125,260.5313 Q143.8906,260.7969 143.5156,260.7969 Q143.1719,260.7969 142.9688,260.5938 Q142.7656,260.4063 142.6563,259.8906 Q142.6094,259.5313 142.4219,259.3438 Q142.0938,258.9688 141.4844,258.75 Q140.875,258.5313 140.25,258.5313 Q139.4844,258.5313 138.8516,258.8594 Q138.2188,259.1875 137.7266,259.9375 Q137.2344,260.6875 137.2344,261.7188 L137.2344,262.8125 Q137.2344,264.0469 138.125,264.8672 Q139.0156,265.6875 140.6094,265.6875 Q141.5469,265.6875 142.2031,265.4375 Q142.5938,265.2813 143.0156,264.8438 Q143.2813,264.5781 143.4297,264.5 Q143.5781,264.4219 143.7813,264.4219 Q144.1094,264.4219 144.3672,264.6797 Q144.625,264.9375 144.625,265.2813 Q144.625,265.625 144.2813,266.0313 Q143.7813,266.6094 142.9844,266.9375 Q141.9063,267.3906 140.6094,267.3906 Q139.0938,267.3906 137.8906,266.7656 Q136.9063,266.2656 136.2188,265.1953 Q135.5313,264.125 135.5313,262.8438 L135.5313,261.6875 Q135.5313,260.3594 136.1484,259.2109 Q136.7656,258.0625 137.8594,257.4453 Q138.9531,256.8281 140.1875,256.8281 Q140.9219,256.8281 141.5703,256.9922 Q142.2188,257.1563 142.7656,257.5156 Z "/><text fill="#000000" font-family="sans-serif" font-size="12" lengthAdjust="spacingAndGlyphs" textLength="51" x="154" y="266.5508">Strategy2</text><line style="stroke: #A80036; stroke-width: 1.5;" x1="126" x2="207" y1="277.6406" y2="277.6406"/><line style="stroke: #A80036; stroke-width: 1.5;" x1="126" x2="207" y1="285.6406" y2="285.6406"/><!--MD5=[fdd8d43c6e394738cd0fefc01d9f6d08]
class Strategy3--><rect codeLine="6" fill="#FEFECE" filter="url(#fdq05keazhvz3)" height="48" id="Strategy3" style="stroke: #A80036; stroke-width: 1.5;" width="83" x="243" y="245.6406"/><ellipse cx="258" cy="261.6406" fill="#ADD1B2" rx="11" ry="11" style="stroke: #A80036; stroke-width: 1.0;"/><path d="M260.7656,257.5156 Q260.9219,257.2969 261.1094,257.1875 Q261.2969,257.0781 261.5156,257.0781 Q261.8906,257.0781 262.125,257.3359 Q262.3594,257.5938 262.3594,258.2031 L262.3594,259.6563 Q262.3594,260.2656 262.125,260.5313 Q261.8906,260.7969 261.5156,260.7969 Q261.1719,260.7969 260.9688,260.5938 Q260.7656,260.4063 260.6563,259.8906 Q260.6094,259.5313 260.4219,259.3438 Q260.0938,258.9688 259.4844,258.75 Q258.875,258.5313 258.25,258.5313 Q257.4844,258.5313 256.8516,258.8594 Q256.2188,259.1875 255.7266,259.9375 Q255.2344,260.6875 255.2344,261.7188 L255.2344,262.8125 Q255.2344,264.0469 256.125,264.8672 Q257.0156,265.6875 258.6094,265.6875 Q259.5469,265.6875 260.2031,265.4375 Q260.5938,265.2813 261.0156,264.8438 Q261.2813,264.5781 261.4297,264.5 Q261.5781,264.4219 261.7813,264.4219 Q262.1094,264.4219 262.3672,264.6797 Q262.625,264.9375 262.625,265.2813 Q262.625,265.625 262.2813,266.0313 Q261.7813,266.6094 260.9844,266.9375 Q259.9063,267.3906 258.6094,267.3906 Q257.0938,267.3906 255.8906,266.7656 Q254.9063,266.2656 254.2188,265.1953 Q253.5313,264.125 253.5313,262.8438 L253.5313,261.6875 Q253.5313,260.3594 254.1484,259.2109 Q254.7656,258.0625 255.8594,257.4453 Q256.9531,256.8281 258.1875,256.8281 Q258.9219,256.8281 259.5703,256.9922 Q260.2188,257.1563 260.7656,257.5156 Z "/><text fill="#000000" font-family="sans-serif" font-size="12" lengthAdjust="spacingAndGlyphs" textLength="51" x="272" y="266.5508">Strategy3</text><line style="stroke: #A80036; stroke-width: 1.5;" x1="244" x2="325" y1="277.6406" y2="277.6406"/><line style="stroke: #A80036; stroke-width: 1.5;" x1="244" x2="325" y1="285.6406" y2="285.6406"/><!--MD5=[6754354365917abf8f1a56af1b7e344c]
class Context--><rect codeLine="7" fill="#FEFECE" filter="url(#fdq05keazhvz3)" height="48" id="Context" style="stroke: #A80036; stroke-width: 1.5;" width="73" x="130" y="29.6406"/><ellipse cx="145" cy="45.6406" fill="#ADD1B2" rx="11" ry="11" style="stroke: #A80036; stroke-width: 1.0;"/><path d="M147.7656,41.5156 Q147.9219,41.2969 148.1094,41.1875 Q148.2969,41.0781 148.5156,41.0781 Q148.8906,41.0781 149.125,41.3359 Q149.3594,41.5938 149.3594,42.2031 L149.3594,43.6563 Q149.3594,44.2656 149.125,44.5313 Q148.8906,44.7969 148.5156,44.7969 Q148.1719,44.7969 147.9688,44.5938 Q147.7656,44.4063 147.6563,43.8906 Q147.6094,43.5313 147.4219,43.3438 Q147.0938,42.9688 146.4844,42.75 Q145.875,42.5313 145.25,42.5313 Q144.4844,42.5313 143.8516,42.8594 Q143.2188,43.1875 142.7266,43.9375 Q142.2344,44.6875 142.2344,45.7188 L142.2344,46.8125 Q142.2344,48.0469 143.125,48.8672 Q144.0156,49.6875 145.6094,49.6875 Q146.5469,49.6875 147.2031,49.4375 Q147.5938,49.2813 148.0156,48.8438 Q148.2813,48.5781 148.4297,48.5 Q148.5781,48.4219 148.7813,48.4219 Q149.1094,48.4219 149.3672,48.6797 Q149.625,48.9375 149.625,49.2813 Q149.625,49.625 149.2813,50.0313 Q148.7813,50.6094 147.9844,50.9375 Q146.9063,51.3906 145.6094,51.3906 Q144.0938,51.3906 142.8906,50.7656 Q141.9063,50.2656 141.2188,49.1953 Q140.5313,48.125 140.5313,46.8438 L140.5313,45.6875 Q140.5313,44.3594 141.1484,43.2109 Q141.7656,42.0625 142.8594,41.4453 Q143.9531,40.8281 145.1875,40.8281 Q145.9219,40.8281 146.5703,40.9922 Q147.2188,41.1563 147.7656,41.5156 Z "/><text fill="#000000" font-family="sans-serif" font-size="12" lengthAdjust="spacingAndGlyphs" textLength="41" x="159" y="50.5508">Context</text><line style="stroke: #A80036; stroke-width: 1.5;" x1="131" x2="202" y1="61.6406" y2="61.6406"/><line style="stroke: #A80036; stroke-width: 1.5;" x1="131" x2="202" y1="69.6406" y2="69.6406"/><!--MD5=[0a7be358f08202a33cfcf8e27bbb9c25]
link Context to Strategy--><path codeLine="9" d="M166.5,89.6406 C166.5,89.6406 166.5,113.3206 166.5,124.0006 " fill="none" id="Context-Strategy" style="stroke: #A80036; stroke-width: 1.0;"/><polygon fill="#A80036" points="166.5,137.3206,170.5,128.3206,166.5,132.3206,162.5,128.3206,166.5,137.3206" style="stroke: #A80036; stroke-width: 1.0;"/><line style="stroke: #A80036; stroke-width: 1.0;" x1="166.5" x2="166.5" y1="132.3206" y2="124.3206"/><polygon fill="#FFFFFF" points="166.5,77.6406,162.5,83.6406,166.5,89.6406,170.5,83.6406,166.5,77.6406" style="stroke: #A80036; stroke-width: 1.0;"/><!--MD5=[d7ae2fb1d2e7383bf211b48d4c302458]
reverse link Strategy to Strategy1--><path codeLine="10" d="M125.79,199.2106 C108.77,214.5006 89.5,231.8106 74.46,245.3206 " fill="none" id="Strategy-backto-Strategy1" style="stroke: #A80036; stroke-width: 1.0;"/><polygon fill="none" points="121.34,193.8006,140.9,185.6406,130.7,204.2106,121.34,193.8006" style="stroke: #A80036; stroke-width: 1.0;"/><!--MD5=[d1c818ce3a6ca07844ad774c0917e5d5]
reverse link Strategy to Strategy2--><path codeLine="11" d="M166.5,205.6606 C166.5,219.2206 166.5,233.6806 166.5,245.3206 " fill="none" id="Strategy-backto-Strategy2" style="stroke: #A80036; stroke-width: 1.0;"/><polygon fill="none" points="159.5,205.6406,166.5,185.6406,173.5,205.6406,159.5,205.6406" style="stroke: #A80036; stroke-width: 1.0;"/><!--MD5=[c32afacb4d4d4b3ce9eba303420f3e65]
reverse link Strategy to Strategy3--><path codeLine="12" d="M207.21,199.2106 C224.23,214.5006 243.5,231.8106 258.54,245.3206 " fill="none" id="Strategy-backto-Strategy3" style="stroke: #A80036; stroke-width: 1.0;"/><polygon fill="none" points="202.3,204.2106,192.1,185.6406,211.66,193.8006,202.3,204.2106" style="stroke: #A80036; stroke-width: 1.0;"/><!--MD5=[08c58495dac51ba460010ba9f3d7da07]
@startuml 
title Strategy Class Diagram

class Strategy 
class Strategy1
class Strategy2
class Strategy3
class Context

Context o- -> Strategy
Strategy <|- - Strategy1
Strategy <|- - Strategy2
Strategy <|- - Strategy3

@enduml

PlantUML version 1.2020.18(Wed Sep 30 21:40:44 CEST 2020)
(GPL source distribution)
Java Runtime: Java(TM) SE Runtime Environment
JVM: Java HotSpot(TM) 64-Bit Server VM
Default Encoding: Cp1252
Language: de
Country: DE
--></g></svg>