<?xml version="1.0" encoding="UTF-8" standalone="no"?><svg xmlns="http://www.w3.org/2000/svg" xmlns:xlink="http://www.w3.org/1999/xlink" contentScriptType="application/ecmascript" contentStyleType="text/css" height="390px" preserveAspectRatio="none" style="width:340px;height:390px;" version="1.1" viewBox="0 0 340 390" width="340px" zoomAndPan="magnify"><defs><filter height="300%" id="fey1gb7hh8flx" width="300%" x="-1" y="-1"><feGaussianBlur result="blurOut" stdDeviation="2.0"/><feColorMatrix in="blurOut" result="blurOut2" type="matrix" values="0 0 0 0 0 0 0 0 0 0 0 0 0 0 0 0 0 0 .4 0"/><feOffset dx="4.0" dy="4.0" in="blurOut2" result="blurOut3"/><feBlend in="SourceGraphic" in2="blurOut3" mode="normal"/></filter></defs><g><text fill="#000000" font-family="sans-serif" font-size="18" lengthAdjust="spacingAndGlyphs" textLength="179" x="74" y="18.6855">StrategyClassDiagram</text><!--MD5=[377953f0e8c8c0131a700fca43c84158]
class Strategy--><rect codeLine="3" fill="#FEFECE" filter="url(#fey1gb7hh8flx)" height="61.8359" id="Strategy" style="stroke: #A80036; stroke-width: 1.5;" width="101" x="116" y="192.6406"/><ellipse cx="142.25" cy="208.6406" fill="#ADD1B2" rx="11" ry="11" style="stroke: #A80036; stroke-width: 1.0;"/><path d="M145.0156,204.5156 Q145.1719,204.2969 145.3594,204.1875 Q145.5469,204.0781 145.7656,204.0781 Q146.1406,204.0781 146.375,204.3359 Q146.6094,204.5938 146.6094,205.2031 L146.6094,206.6563 Q146.6094,207.2656 146.375,207.5313 Q146.1406,207.7969 145.7656,207.7969 Q145.4219,207.7969 145.2188,207.5938 Q145.0156,207.4063 144.9063,206.8906 Q144.8594,206.5313 144.6719,206.3438 Q144.3438,205.9688 143.7344,205.75 Q143.125,205.5313 142.5,205.5313 Q141.7344,205.5313 141.1016,205.8594 Q140.4688,206.1875 139.9766,206.9375 Q139.4844,207.6875 139.4844,208.7188 L139.4844,209.8125 Q139.4844,211.0469 140.375,211.8672 Q141.2656,212.6875 142.8594,212.6875 Q143.7969,212.6875 144.4531,212.4375 Q144.8438,212.2813 145.2656,211.8438 Q145.5313,211.5781 145.6797,211.5 Q145.8281,211.4219 146.0313,211.4219 Q146.3594,211.4219 146.6172,211.6797 Q146.875,211.9375 146.875,212.2813 Q146.875,212.625 146.5313,213.0313 Q146.0313,213.6094 145.2344,213.9375 Q144.1563,214.3906 142.8594,214.3906 Q141.3438,214.3906 140.1406,213.7656 Q139.1563,213.2656 138.4688,212.1953 Q137.7813,211.125 137.7813,209.8438 L137.7813,208.6875 Q137.7813,207.3594 138.3984,206.2109 Q139.0156,205.0625 140.1094,204.4453 Q141.2031,203.8281 142.4375,203.8281 Q143.1719,203.8281 143.8203,203.9922 Q144.4688,204.1563 145.0156,204.5156 Z "/><text fill="#000000" font-family="sans-serif" font-size="12" lengthAdjust="spacingAndGlyphs" textLength="44" x="158.75" y="213.5508">Strategy</text><line style="stroke: #A80036; stroke-width: 1.5;" x1="117" x2="216" y1="224.6406" y2="224.6406"/><line style="stroke: #A80036; stroke-width: 1.5;" x1="117" x2="216" y1="232.6406" y2="232.6406"/><ellipse cx="127" cy="243.6406" fill="#84BE84" rx="3" ry="3" style="stroke: #038048; stroke-width: 1.0;"/><text fill="#000000" font-family="sans-serif" font-size="11" lengthAdjust="spacingAndGlyphs" textLength="75" x="136" y="248.0596">operator()() = 0</text><!--MD5=[d678f02e2d5bd6dca56adad3113a969b]
class Strategy1--><rect codeLine="7" fill="#FEFECE" filter="url(#fey1gb7hh8flx)" height="61.8359" id="Strategy1" style="stroke: #A80036; stroke-width: 1.5;" width="83" x="7" y="314.6406"/><ellipse cx="22" cy="330.6406" fill="#ADD1B2" rx="11" ry="11" style="stroke: #A80036; stroke-width: 1.0;"/><path d="M24.7656,326.5156 Q24.9219,326.2969 25.1094,326.1875 Q25.2969,326.0781 25.5156,326.0781 Q25.8906,326.0781 26.125,326.3359 Q26.3594,326.5938 26.3594,327.2031 L26.3594,328.6563 Q26.3594,329.2656 26.125,329.5313 Q25.8906,329.7969 25.5156,329.7969 Q25.1719,329.7969 24.9688,329.5938 Q24.7656,329.4063 24.6563,328.8906 Q24.6094,328.5313 24.4219,328.3438 Q24.0938,327.9688 23.4844,327.75 Q22.875,327.5313 22.25,327.5313 Q21.4844,327.5313 20.8516,327.8594 Q20.2188,328.1875 19.7266,328.9375 Q19.2344,329.6875 19.2344,330.7188 L19.2344,331.8125 Q19.2344,333.0469 20.125,333.8672 Q21.0156,334.6875 22.6094,334.6875 Q23.5469,334.6875 24.2031,334.4375 Q24.5938,334.2813 25.0156,333.8438 Q25.2813,333.5781 25.4297,333.5 Q25.5781,333.4219 25.7813,333.4219 Q26.1094,333.4219 26.3672,333.6797 Q26.625,333.9375 26.625,334.2813 Q26.625,334.625 26.2813,335.0313 Q25.7813,335.6094 24.9844,335.9375 Q23.9063,336.3906 22.6094,336.3906 Q21.0938,336.3906 19.8906,335.7656 Q18.9063,335.2656 18.2188,334.1953 Q17.5313,333.125 17.5313,331.8438 L17.5313,330.6875 Q17.5313,329.3594 18.1484,328.2109 Q18.7656,327.0625 19.8594,326.4453 Q20.9531,325.8281 22.1875,325.8281 Q22.9219,325.8281 23.5703,325.9922 Q24.2188,326.1563 24.7656,326.5156 Z "/><text fill="#000000" font-family="sans-serif" font-size="12" lengthAdjust="spacingAndGlyphs" textLength="51" x="36" y="335.5508">Strategy1</text><line style="stroke: #A80036; stroke-width: 1.5;" x1="8" x2="89" y1="346.6406" y2="346.6406"/><line style="stroke: #A80036; stroke-width: 1.5;" x1="8" x2="89" y1="354.6406" y2="354.6406"/><ellipse cx="18" cy="365.6406" fill="#84BE84" rx="3" ry="3" style="stroke: #038048; stroke-width: 1.0;"/><text fill="#000000" font-family="sans-serif" font-size="11" lengthAdjust="spacingAndGlyphs" textLength="57" x="27" y="370.0596">operator()()</text><!--MD5=[bc790b966eae73bda6a7bf384de79ba2]
class Strategy2--><rect codeLine="10" fill="#FEFECE" filter="url(#fey1gb7hh8flx)" height="61.8359" id="Strategy2" style="stroke: #A80036; stroke-width: 1.5;" width="83" x="125" y="314.6406"/><ellipse cx="140" cy="330.6406" fill="#ADD1B2" rx="11" ry="11" style="stroke: #A80036; stroke-width: 1.0;"/><path d="M142.7656,326.5156 Q142.9219,326.2969 143.1094,326.1875 Q143.2969,326.0781 143.5156,326.0781 Q143.8906,326.0781 144.125,326.3359 Q144.3594,326.5938 144.3594,327.2031 L144.3594,328.6563 Q144.3594,329.2656 144.125,329.5313 Q143.8906,329.7969 143.5156,329.7969 Q143.1719,329.7969 142.9688,329.5938 Q142.7656,329.4063 142.6563,328.8906 Q142.6094,328.5313 142.4219,328.3438 Q142.0938,327.9688 141.4844,327.75 Q140.875,327.5313 140.25,327.5313 Q139.4844,327.5313 138.8516,327.8594 Q138.2188,328.1875 137.7266,328.9375 Q137.2344,329.6875 137.2344,330.7188 L137.2344,331.8125 Q137.2344,333.0469 138.125,333.8672 Q139.0156,334.6875 140.6094,334.6875 Q141.5469,334.6875 142.2031,334.4375 Q142.5938,334.2813 143.0156,333.8438 Q143.2813,333.5781 143.4297,333.5 Q143.5781,333.4219 143.7813,333.4219 Q144.1094,333.4219 144.3672,333.6797 Q144.625,333.9375 144.625,334.2813 Q144.625,334.625 144.2813,335.0313 Q143.7813,335.6094 142.9844,335.9375 Q141.9063,336.3906 140.6094,336.3906 Q139.0938,336.3906 137.8906,335.7656 Q136.9063,335.2656 136.2188,334.1953 Q135.5313,333.125 135.5313,331.8438 L135.5313,330.6875 Q135.5313,329.3594 136.1484,328.2109 Q136.7656,327.0625 137.8594,326.4453 Q138.9531,325.8281 140.1875,325.8281 Q140.9219,325.8281 141.5703,325.9922 Q142.2188,326.1563 142.7656,326.5156 Z "/><text fill="#000000" font-family="sans-serif" font-size="12" lengthAdjust="spacingAndGlyphs" textLength="51" x="154" y="335.5508">Strategy2</text><line style="stroke: #A80036; stroke-width: 1.5;" x1="126" x2="207" y1="346.6406" y2="346.6406"/><line style="stroke: #A80036; stroke-width: 1.5;" x1="126" x2="207" y1="354.6406" y2="354.6406"/><ellipse cx="136" cy="365.6406" fill="#84BE84" rx="3" ry="3" style="stroke: #038048; stroke-width: 1.0;"/><text fill="#000000" font-family="sans-serif" font-size="11" lengthAdjust="spacingAndGlyphs" textLength="57" x="145" y="370.0596">operator()()</text><!--MD5=[fdd8d43c6e394738cd0fefc01d9f6d08]
class Strategy3--><rect codeLine="13" fill="#FEFECE" filter="url(#fey1gb7hh8flx)" height="61.8359" id="Strategy3" style="stroke: #A80036; stroke-width: 1.5;" width="83" x="243" y="314.6406"/><ellipse cx="258" cy="330.6406" fill="#ADD1B2" rx="11" ry="11" style="stroke: #A80036; stroke-width: 1.0;"/><path d="M260.7656,326.5156 Q260.9219,326.2969 261.1094,326.1875 Q261.2969,326.0781 261.5156,326.0781 Q261.8906,326.0781 262.125,326.3359 Q262.3594,326.5938 262.3594,327.2031 L262.3594,328.6563 Q262.3594,329.2656 262.125,329.5313 Q261.8906,329.7969 261.5156,329.7969 Q261.1719,329.7969 260.9688,329.5938 Q260.7656,329.4063 260.6563,328.8906 Q260.6094,328.5313 260.4219,328.3438 Q260.0938,327.9688 259.4844,327.75 Q258.875,327.5313 258.25,327.5313 Q257.4844,327.5313 256.8516,327.8594 Q256.2188,328.1875 255.7266,328.9375 Q255.2344,329.6875 255.2344,330.7188 L255.2344,331.8125 Q255.2344,333.0469 256.125,333.8672 Q257.0156,334.6875 258.6094,334.6875 Q259.5469,334.6875 260.2031,334.4375 Q260.5938,334.2813 261.0156,333.8438 Q261.2813,333.5781 261.4297,333.5 Q261.5781,333.4219 261.7813,333.4219 Q262.1094,333.4219 262.3672,333.6797 Q262.625,333.9375 262.625,334.2813 Q262.625,334.625 262.2813,335.0313 Q261.7813,335.6094 260.9844,335.9375 Q259.9063,336.3906 258.6094,336.3906 Q257.0938,336.3906 255.8906,335.7656 Q254.9063,335.2656 254.2188,334.1953 Q253.5313,333.125 253.5313,331.8438 L253.5313,330.6875 Q253.5313,329.3594 254.1484,328.2109 Q254.7656,327.0625 255.8594,326.4453 Q256.9531,325.8281 258.1875,325.8281 Q258.9219,325.8281 259.5703,325.9922 Q260.2188,326.1563 260.7656,326.5156 Z "/><text fill="#000000" font-family="sans-serif" font-size="12" lengthAdjust="spacingAndGlyphs" textLength="51" x="272" y="335.5508">Strategy3</text><line style="stroke: #A80036; stroke-width: 1.5;" x1="244" x2="325" y1="346.6406" y2="346.6406"/><line style="stroke: #A80036; stroke-width: 1.5;" x1="244" x2="325" y1="354.6406" y2="354.6406"/><ellipse cx="254" cy="365.6406" fill="#84BE84" rx="3" ry="3" style="stroke: #038048; stroke-width: 1.0;"/><text fill="#000000" font-family="sans-serif" font-size="11" lengthAdjust="spacingAndGlyphs" textLength="57" x="263" y="370.0596">operator()()</text><!--MD5=[6754354365917abf8f1a56af1b7e344c]
class Context--><rect codeLine="16" fill="#FEFECE" filter="url(#fey1gb7hh8flx)" height="103.3438" id="Context" style="stroke: #A80036; stroke-width: 1.5;" width="234" x="49.5" y="29.6406"/><ellipse cx="141.75" cy="45.6406" fill="#ADD1B2" rx="11" ry="11" style="stroke: #A80036; stroke-width: 1.0;"/><path d="M144.5156,41.5156 Q144.6719,41.2969 144.8594,41.1875 Q145.0469,41.0781 145.2656,41.0781 Q145.6406,41.0781 145.875,41.3359 Q146.1094,41.5938 146.1094,42.2031 L146.1094,43.6563 Q146.1094,44.2656 145.875,44.5313 Q145.6406,44.7969 145.2656,44.7969 Q144.9219,44.7969 144.7188,44.5938 Q144.5156,44.4063 144.4063,43.8906 Q144.3594,43.5313 144.1719,43.3438 Q143.8438,42.9688 143.2344,42.75 Q142.625,42.5313 142,42.5313 Q141.2344,42.5313 140.6016,42.8594 Q139.9688,43.1875 139.4766,43.9375 Q138.9844,44.6875 138.9844,45.7188 L138.9844,46.8125 Q138.9844,48.0469 139.875,48.8672 Q140.7656,49.6875 142.3594,49.6875 Q143.2969,49.6875 143.9531,49.4375 Q144.3438,49.2813 144.7656,48.8438 Q145.0313,48.5781 145.1797,48.5 Q145.3281,48.4219 145.5313,48.4219 Q145.8594,48.4219 146.1172,48.6797 Q146.375,48.9375 146.375,49.2813 Q146.375,49.625 146.0313,50.0313 Q145.5313,50.6094 144.7344,50.9375 Q143.6563,51.3906 142.3594,51.3906 Q140.8438,51.3906 139.6406,50.7656 Q138.6563,50.2656 137.9688,49.1953 Q137.2813,48.125 137.2813,46.8438 L137.2813,45.6875 Q137.2813,44.3594 137.8984,43.2109 Q138.5156,42.0625 139.6094,41.4453 Q140.7031,40.8281 141.9375,40.8281 Q142.6719,40.8281 143.3203,40.9922 Q143.9688,41.1563 144.5156,41.5156 Z "/><text fill="#000000" font-family="sans-serif" font-size="12" lengthAdjust="spacingAndGlyphs" textLength="41" x="162.25" y="50.5508">Context</text><line style="stroke: #A80036; stroke-width: 1.5;" x1="50.5" x2="282.5" y1="61.6406" y2="61.6406"/><rect fill="none" height="6" style="stroke: #C82930; stroke-width: 1.0;" width="6" x="57.5" y="69.6406"/><text fill="#000000" font-family="sans-serif" font-size="11" lengthAdjust="spacingAndGlyphs" textLength="156" x="69.5" y="77.0596">std::unique_ptr&lt;Strategy&gt; strat_</text><line style="stroke: #A80036; stroke-width: 1.5;" x1="50.5" x2="282.5" y1="83.4766" y2="83.4766"/><ellipse cx="60.5" cy="94.4766" fill="#84BE84" rx="3" ry="3" style="stroke: #038048; stroke-width: 1.0;"/><text fill="#000000" font-family="sans-serif" font-size="11" lengthAdjust="spacingAndGlyphs" textLength="45" x="69.5" y="98.8955">Context()</text><ellipse cx="60.5" cy="108.3125" fill="#84BE84" rx="3" ry="3" style="stroke: #038048; stroke-width: 1.0;"/><text fill="#000000" font-family="sans-serif" font-size="11" lengthAdjust="spacingAndGlyphs" textLength="208" x="69.5" y="112.7314">setStrategy(std::unique_ptr&lt;Strategy strat)</text><ellipse cx="60.5" cy="122.1484" fill="#84BE84" rx="3" ry="3" style="stroke: #038048; stroke-width: 1.0;"/><text fill="#000000" font-family="sans-serif" font-size="11" lengthAdjust="spacingAndGlyphs" textLength="48" x="69.5" y="126.5674">strategy()</text><!--MD5=[0a7be358f08202a33cfcf8e27bbb9c25]
link Context to Strategy--><path codeLine="23" d="M166.5,144.8606 C166.5,144.8606 166.5,168.8306 166.5,179.3106 " fill="none" id="Context-Strategy" style="stroke: #A80036; stroke-width: 1.0;"/><polygon fill="#A80036" points="166.5,192.4306,170.5,183.4306,166.5,187.4306,162.5,183.4306,166.5,192.4306" style="stroke: #A80036; stroke-width: 1.0;"/><line style="stroke: #A80036; stroke-width: 1.0;" x1="166.5" x2="166.5" y1="187.4306" y2="179.4306"/><polygon fill="#FFFFFF" points="166.5,132.8606,162.5,138.8606,166.5,144.8606,170.5,138.8606,166.5,132.8606" style="stroke: #A80036; stroke-width: 1.0;"/><!--MD5=[d7ae2fb1d2e7383bf211b48d4c302458]
reverse link Strategy to Strategy1--><path codeLine="24" d="M122.56,269.3306 C107.79,284.3406 91.68,300.7306 78.27,314.3706 " fill="none" id="Strategy-backto-Strategy1" style="stroke: #A80036; stroke-width: 1.0;"/><polygon fill="none" points="117.71,264.2706,136.72,254.9206,127.69,274.0906,117.71,264.2706" style="stroke: #A80036; stroke-width: 1.0;"/><!--MD5=[d1c818ce3a6ca07844ad774c0917e5d5]
reverse link Strategy to Strategy2--><path codeLine="25" d="M166.5,275.0106 C166.5,288.3906 166.5,302.4306 166.5,314.3706 " fill="none" id="Strategy-backto-Strategy2" style="stroke: #A80036; stroke-width: 1.0;"/><polygon fill="none" points="159.5,274.9206,166.5,254.9206,173.5,274.9206,159.5,274.9206" style="stroke: #A80036; stroke-width: 1.0;"/><!--MD5=[c32afacb4d4d4b3ce9eba303420f3e65]
reverse link Strategy to Strategy3--><path codeLine="26" d="M210.44,269.3306 C225.21,284.3406 241.32,300.7306 254.73,314.3706 " fill="none" id="Strategy-backto-Strategy3" style="stroke: #A80036; stroke-width: 1.0;"/><polygon fill="none" points="205.31,274.0906,196.28,254.9206,215.29,264.2706,205.31,274.0906" style="stroke: #A80036; stroke-width: 1.0;"/><!--MD5=[167d1af22f717ae05ed775fe08775f1b]
@startuml 
title StrategyClassDiagram

class Strategy {
  + operator()() = 0
}

class Strategy1 {
  + operator()()
}
class Strategy2 {
  + operator()()
}
class Strategy3 {
  + operator()()
}
class Context {
  - std::unique_ptr<Strategy> strat_
  + Context()
  + setStrategy(std::unique_ptr<Strategy strat)
  + strategy()
}

Context o- -> Strategy
Strategy <|- - Strategy1
Strategy <|- - Strategy2
Strategy <|- - Strategy3

@enduml

PlantUML version 1.2020.18(Wed Sep 30 21:40:44 CEST 2020)
(GPL source distribution)
Java Runtime: Java(TM) SE Runtime Environment
JVM: Java HotSpot(TM) 64-Bit Server VM
Default Encoding: Cp1252
Language: de
Country: DE
--></g></svg>